<svg xmlns="http://www.w3.org/2000/svg" xmlns:xlink="http://www.w3.org/1999/xlink">
    <defs>
        <symbol id="address" viewBox="0 0 249.361 252.303">
            <g xmlns="http://www.w3.org/2000/svg" id="Layer_2" data-name="Layer 2">
                <g id="Capa_1" data-name="Capa 1">
                    <g>
                        <path d="M190.377,111.305l1.9,1.364h1.774v-3.414l5.592-.542,5.312,3.956h8.73l.614-.561q-1.312-4.415-2.963-8.669l-5.7.1-2.858-3.139-.551-5.045-2.929,1.6-1.57,6.167-4.227-4.5-.171-4.252-4.08-3.514-1.5-1.5h-4.731l1.488,4.218,5.7,3.177L191.2,97.8l-1.237.618.057,3.343-2.777,1.16-2.368-.518-1.483-2.1,3.856.2,1.042-1.4-8.536-5.758-.656-2.454-3.467,3.139-3.514-.723-5.35,6.957-1.055,2.724-3.424.31-5.065.033-3.029-1.417L153.3,95.9l1.089-2.867,5.155-1.127,5.621,1.127.689-3.11-2.387-.566.813-4.845,5.659-.885,3.956-5.587,4.085-.685,3.686.547h1.36l-.752-5.25L177.8,74.457l-1.579-3.923-2.6-.362-.49-2.686,2.121-2.311,5.045-1.979,1.3-2.32A109.055,109.055,0,0,0,45.113,54.5l5.516-.042,2.459,1.36,4.631,1,.362,1.821,7.366.271-1-2.363L57.9,56.362l1.541-1.451-.538-1.731H52.993l6.453-4.817h6.181l2.906,4,4.822.271,2.905-2.82L78.443,50.9l-4,3.909s-5.54.1-5.269.1.457,3.814.457,3.814l6.719-.186.727-1.811,4.632-.276.547-2.725-2.725-.461.908-2.454,2.088-.632,7.271.361L85.785,54.18,86.432,57l4.18.637-.272-5.088,4-2.092,7.09-.818L111.7,54.18v3.909l3.272.817L113.327,62h-4.636l-1.374,3.543-10.581-2.5,8.327-4.437-3.172-2.7-7.18.908-.628.651-.024-.009-.109.152-2.069,2.149-3.419.281.271,1.7,1.194.5-.048.561-2.779.4-.2,1.612-2.658.138-.481-3.2L78.992,63.2l-9.755,5.7,1.093,4.018L73.055,74.7l5.45.751v6.2l2.52-.4L83.346,76.4l5.8-1.835V67.128l3.224-2.434,7.794,1.84-.547,4.912h2.093l5.73-2.815.275,6.448,4.171,2.544-.176,3.823-4,1.36.272,1.265,4.817,2.192-.1,2.635-1.394.119a.353.353,0,0,0-.014-.072l-6.077-1.873-.257-1.95h0l1.779-1.222V82.122l-1.912-.481-.475,1.641L101,83.8l-.333-.109v.166l-1.16.176-.946-1.911-1.094-.481H95.072l-1.084.894v1.979l2.04.68,2.016.285-.452.2-1.84,2.04L94.944,86.7l-1.779-.471L88.32,90.786l.632.518L81.8,95.265l-6.729,7-.461,3.115-6.743,4.432-3.343,3.362L64.9,119.9l-4.636-2.158.033-3.933-12.9,0L40.716,117.2l-2.9,5.349-1.151,4.242,1.879,4.113,5.264.642,8.364-5.592.733,2.772-2.554,4.822,6.367,1.089.637,9.834,8.726,1.484,5.545-6.41,6.729,1.369,2.363,3.286,6.453-.38.181-1.907,3.547,1.721,4,6.268,6.905.095,2.549,4.46.361,5.45,7.637,2.905,9.634.1,2.82,4.627,4.27,1.369-.818,3.828-4.679,5.945-1.364,13.167-4.228,3.338L111.719,195l-2.088,3.633,1.55,6.828-6.823,8.721-2.178,4-6.5,3.12-4.275.651-.176,1.812,3,.861-.362,1.954-2.686,2.587,1.631,2.059,3.233.09-.18,2.492L95,236.263l-.276,2,4.784,4.027-.637,2.093-6.51-.124-6.477-5.649-5.045-8.869.7-8.559-3.819-5.093,1.546-8.631L77,206.824V188.1s-6.362-4.821-6.728-4.821-3.367-.818-3.367-.818l-.637-3.538L58,168.553l.818-3.723.271-6.092,5.726-4L64,147.919l-8.36-.627-6.543-7.457-4.637-1.283-3-.552.362-2.725L38,134.729v1.546l-9.548-2.383-3.843-5.877,1.565-2.849-6.044-8.821-1.037-6.453H16.639l.813,6.268,4.18,6.453-.457,2.549-3.542-.547-4.361-7.433v-8.65L8.726,106.35v-6.225A109.334,109.334,0,0,0,194.205,211.874H190.6V204.6l-4.175-5.621v-8.745l-3.186-3.176-.281-3.638,4.051-7.727-7.67-13.548.9-9.192-6.905-.713L170.79,149.7h-4.641l-2.358,2.178H155.6l-.276.727h-4.551l-10.442-11.9.085-9.273,1.726-.632.642-3.548h-2.453l-1-3.723,12.083-8.721v-6.182l5.916-3.286,2.4.238h4.864l3.809-2.045,12.273-.956v6.272Zm-30.681-39,1-1.541,3.595-.727.9,4.365L167.1,77.49l1.27,1.46,2.315.9-2.182,2.6-4.228.4H161.1l.356-3.771,2.644-.547-.223-1.774-2.463-1.545-1.722-1.179V72.3Zm-5.9,6.819,2.182-3.5,2.944-.685,2.092.908-.19,2.364-4.5,3.181h-2.54V79.126ZM94.368,92.578l-2.278.191.124-1.584,1.018-1.269L94.6,90.99Zm7.984-2.8-1.555.134-.314,1.5-1.2.747-1.921.161c-.067-.451-.1-.794-.1-.794h-.746v-1.61h3.134l.646-1.67,1.246-.023,1.422.294Z" fill="#fff"/>
                        <path d="M185.937,0a63.463,63.463,0,0,0-63.423,63.423c0,29.868,45.2,94.271,56.388,109.721,1.326,1.788,2.193,2.942,2.424,3.288a5.766,5.766,0,0,0,9.223,0c.231-.346,1.1-1.5,2.424-3.288,11.185-15.45,56.388-79.853,56.388-109.721A63.464,63.464,0,0,0,185.937,0Z" fill="#fff"/>
                        <g>
                            <path d="M185.937,147.879C171.766,128,144.8,86.581,144.8,68.8a41.141,41.141,0,1,1,82.281-.407c0,.136,0,.271,0,.407C227.078,86.581,200.109,128,185.937,147.879Z" fill="#fff"/>
                            <path d="M185.937,18.515A50.316,50.316,0,0,0,135.654,68.8c0,23.679,35.838,74.739,44.706,86.988,1.051,1.418,1.738,2.333,1.921,2.607a4.57,4.57,0,0,0,7.312,0c.183-.274.871-1.189,1.922-2.607,8.868-12.249,44.706-63.309,44.706-86.988A50.316,50.316,0,0,0,185.937,18.515Zm0,129.364C171.766,128,144.8,86.581,144.8,68.8a41.141,41.141,0,1,1,82.281-.407c0,.136,0,.271,0,.407C227.078,86.581,200.109,128,185.937,147.879Z" fill="#fff"/>
                            <circle cx="185.937" cy="68.799" r="27.427" fill="#001d31"/>
                        </g>
                    </g>
                </g>
            </g>
        </symbol>
        <symbol id="imageTagging" viewBox="0 0 180.385 151.84">
            <g id="Layer_2" data-name="Layer 2">
                <g id="Layer_1-2" data-name="Layer 1">
                <g>
                    <polyline points="47.884 48.535 75.592 18.123 102.286 47.521" fill="none" stroke="#653ddf" stroke-linecap="round" stroke-miterlimit="10" stroke-width="3.68"/>
                    <polyline points="91.136 35.019 105.328 18.461 132.022 47.859" fill="none" stroke="#653ddf" stroke-linecap="round" stroke-miterlimit="10" stroke-width="3.68"/>
                </g>
                <g>
                    <polygon points="68.407 107.762 1.84 107.762 1.84 77.35 68.407 77.35 80.074 92.863 68.407 107.762" fill="none" stroke="#653ddf" stroke-linecap="round" stroke-miterlimit="10" stroke-width="3.68"/>
                    <line x1="11.301" y1="92.556" x2="37.658" y2="92.556" fill="none" stroke="#653ddf" stroke-linecap="round" stroke-miterlimit="10" stroke-width="3.68"/>
                    <g>
                    <line x1="61.987" y1="85.967" x2="51.005" y2="99.145" fill="none" stroke="#653ddf" stroke-linecap="round" stroke-miterlimit="10" stroke-width="3.68"/>
                    <line x1="50.506" y1="86.417" x2="62.486" y2="98.695" fill="none" stroke="#653ddf" stroke-linecap="round" stroke-miterlimit="10" stroke-width="3.68"/>
                    </g>
                    <g>
                    <polygon points="165.386 107.762 95.749 107.762 95.749 77.35 165.386 77.35 177.052 92.863 165.386 107.762" fill="none" stroke="#653ddf" stroke-linecap="round" stroke-miterlimit="10" stroke-width="3.68"/>
                    <line x1="105.21" y1="92.556" x2="134.637" y2="92.556" fill="none" stroke="#653ddf" stroke-linecap="round" stroke-miterlimit="10" stroke-width="3.68"/>
                    <g>
                        <line x1="158.966" y1="85.967" x2="147.984" y2="99.145" fill="none" stroke="#653ddf" stroke-linecap="round" stroke-miterlimit="10" stroke-width="3.68"/>
                        <line x1="147.485" y1="86.417" x2="159.464" y2="98.695" fill="none" stroke="#653ddf" stroke-linecap="round" stroke-miterlimit="10" stroke-width="3.68"/>
                    </g>
                    </g>
                    <polygon points="61.439 150 2.854 150 2.854 119.589 61.439 119.589 73.105 135.101 61.439 150" fill="none" stroke="#653ddf" stroke-linecap="round" stroke-miterlimit="10" stroke-width="3.68"/>
                    <line x1="12.315" y1="134.794" x2="30.689" y2="134.794" fill="none" stroke="#653ddf" stroke-linecap="round" stroke-miterlimit="10" stroke-width="3.68"/>
                    <g>
                    <line x1="55.018" y1="128.205" x2="44.037" y2="141.383" fill="none" stroke="#653ddf" stroke-linecap="round" stroke-miterlimit="10" stroke-width="3.68"/>
                    <line x1="43.538" y1="128.655" x2="55.517" y2="140.934" fill="none" stroke="#653ddf" stroke-linecap="round" stroke-miterlimit="10" stroke-width="3.68"/>
                    </g>
                    <g>
                    <polygon points="166.4 150 87.552 150 87.552 119.589 166.4 119.589 178.066 135.101 166.4 150" fill="none" stroke="#653ddf" stroke-linecap="round" stroke-miterlimit="10" stroke-width="3.68"/>
                    <line x1="97.013" y1="134.794" x2="135.65" y2="134.794" fill="none" stroke="#653ddf" stroke-linecap="round" stroke-miterlimit="10" stroke-width="3.68"/>
                    <g>
                        <line x1="159.98" y1="128.205" x2="148.998" y2="141.383" fill="none" stroke="#653ddf" stroke-linecap="round" stroke-miterlimit="10" stroke-width="3.68"/>
                        <line x1="148.499" y1="128.655" x2="160.478" y2="140.934" fill="none" stroke="#653ddf" stroke-linecap="round" stroke-miterlimit="10" stroke-width="3.68"/>
                    </g>
                    </g>
                </g>
                <path d="M42.477,66.658A11.377,11.377,0,0,1,31.112,55.293V11.365A11.377,11.377,0,0,1,42.477,0h94.952a11.377,11.377,0,0,1,11.365,11.365V55.293a11.377,11.377,0,0,1-11.365,11.365Zm0-62.944a7.66,7.66,0,0,0-7.651,7.652V55.293a7.659,7.659,0,0,0,7.651,7.651h94.952a7.659,7.659,0,0,0,7.651-7.651V11.366a7.66,7.66,0,0,0-7.651-7.652Z" fill="#653ddf"/>
                </g>
            </g>
        </symbol>
        <symbol id="mail" viewBox="0 0 207.973 176.777">
            <g id="Layer_2" data-name="Layer 2">
                <g id="Capa_1" data-name="Capa 1">
                    <g>
                        <polygon points="179.377 39.775 179.377 77.47 205.113 57.713 179.377 39.775"/>
                        <polygon points="28.596 39.775 2.86 57.713 28.596 77.47 28.596 39.775"/>
                        <path d="M171.577,83.449V0H36.4V83.449l67.592,51.993ZM62.392,26h23.4a3.9,3.9,0,0,1,0,7.8h-23.4a3.9,3.9,0,1,1,0-7.8Zm0,23.4h83.189a3.9,3.9,0,1,1,0,7.8H62.392a3.9,3.9,0,0,1,0-7.8Zm-3.9,27.3a3.9,3.9,0,0,1,3.9-3.9h83.189a3.9,3.9,0,1,1,0,7.8H62.392A3.9,3.9,0,0,1,58.492,76.69Z"/>
                        <polygon points="0 64.991 0 174.177 75.39 123.224 0 64.991"/>
                        <polygon points="132.583 123.224 207.973 174.177 207.973 64.991 132.583 123.224"/>
                        <path d="M106.326,143.241a3.9,3.9,0,0,1-4.679,0l-19.5-14.818L9.879,176.777H198.094l-72.01-48.614Z"/>
                    </g>
                </g>
            </g>
        </symbol>
        <symbol id="personalizedProducts" viewBox="0 0 193.657 150">
            <g id="Layer_2" data-name="Layer 2">
                <g id="Layer_1-2" data-name="Layer 1">
                <path d="M82.129,143.689,114.7,132.844,93.01,111.15Z"/>
                <polygon points="82.129 143.689 114.704 132.844 93.01 111.15 82.129 143.689" fill="#fff"/>
                <path d="M57.8,143.461a2.055,2.055,0,0,1-2.053-2.052V127.245l-1.8-.58a57.762,57.762,0,0,1-8.49-3.512l-1.679-.857-10.008,10.01a2.059,2.059,0,0,1-2.906,0L11.155,112.6a2.06,2.06,0,0,1,0-2.905L21.175,99.681,20.31,98A56.767,56.767,0,0,1,16.8,89.516l-.578-1.8H2.052A2.055,2.055,0,0,1,0,85.666V57.8a2.055,2.055,0,0,1,2.052-2.053H16.218l.579-1.8a57.761,57.761,0,0,1,2.444-6.293c.311-.676.659-1.394,1.068-2.2l.856-1.679L11.155,33.768a2.06,2.06,0,0,1,0-2.905L30.865,11.156a2.056,2.056,0,0,1,2.905,0L43.778,21.167l1.679-.859A57.826,57.826,0,0,1,53.946,16.8l1.8-.58V2.052A2.055,2.055,0,0,1,57.8,0H85.667a2.055,2.055,0,0,1,2.052,2.052V16.216l1.8.58A57.743,57.743,0,0,1,98,20.308l1.68.859,10.009-10.012a2.058,2.058,0,0,1,2.905,0l19.708,19.708a2.061,2.061,0,0,1,0,2.905L122.288,43.78l.862,1.682a56.454,56.454,0,0,1,3.514,8.483l.579,1.8h14.166a2.055,2.055,0,0,1,2.052,2.053V85.666a2.055,2.055,0,0,1-2.052,2.053H127.243l-.579,1.8A56.554,56.554,0,0,1,123.151,98l-.863,1.683,10.018,10.012a2.058,2.058,0,0,1,0,2.9L112.6,132.306a2.059,2.059,0,0,1-2.906,0L99.684,122.3l-1.68.857a57.547,57.547,0,0,1-8.489,3.511l-1.8.581v14.164a2.054,2.054,0,0,1-2.052,2.052Zm-14.333-25.8a2.033,2.033,0,0,1,1.04.285,53.368,53.368,0,0,0,13.809,5.713,2.052,2.052,0,0,1,1.537,1.986v13.713H83.614V125.643a2.053,2.053,0,0,1,1.54-1.987,53.261,53.261,0,0,0,13.8-5.712,2.066,2.066,0,0,1,1.044-.285,2.042,2.042,0,0,1,1.453.6l9.692,9.692,16.8-16.809-9.686-9.691a2.051,2.051,0,0,1-.316-2.493,53.36,53.36,0,0,0,5.713-13.808,2.05,2.05,0,0,1,1.986-1.538h13.713V59.848H125.643a2.054,2.054,0,0,1-1.987-1.54,53.329,53.329,0,0,0-5.711-13.8,2.053,2.053,0,0,1,.316-2.495l9.685-9.691-16.8-16.809L101.452,25.2a2.055,2.055,0,0,1-2.5.315,53.322,53.322,0,0,0-13.806-5.712,2.052,2.052,0,0,1-1.537-1.987V4.106H59.848V17.8a2.051,2.051,0,0,1-1.539,1.985,53.328,53.328,0,0,0-13.8,5.711,2.062,2.062,0,0,1-1.047.288,2.038,2.038,0,0,1-1.451-.6l-9.691-9.695L15.515,32.3,25.2,41.99a2.052,2.052,0,0,1,.315,2.493,54.331,54.331,0,0,0-2.537,4.883A53.123,53.123,0,0,0,19.8,58.312a2.05,2.05,0,0,1-1.986,1.536H4.106V83.614H17.818a2.053,2.053,0,0,1,1.987,1.54,53.362,53.362,0,0,0,5.712,13.8,2.058,2.058,0,0,1-.317,2.5l-9.685,9.69,16.8,16.809,9.691-9.693A2.047,2.047,0,0,1,43.462,117.659Z" fill="#60d6bc"/>
                <path d="M71.73,101.655a29.924,29.924,0,1,1,29.925-29.922A29.958,29.958,0,0,1,71.73,101.655Zm0-55.743A25.819,25.819,0,1,0,97.549,71.734,25.848,25.848,0,0,0,71.73,45.912Z" fill="#60d6bc"/>
                <path d="M78.038,150a2.213,2.213,0,0,1-1.554-.642,2.161,2.161,0,0,1-.525-2.23L89.738,105.69a1.146,1.146,0,0,0,.07-.172l.043-.111.075-.117.146-.153.2-.3L152.56,42.576l5.847-5.881a15.43,15.43,0,0,1,21.8,0l8.951,8.919a15.449,15.449,0,0,1,0,21.8l-68.222,68.22-.19.152c-.021.014-.123.072-.123.072l-.01,0-.087.045-.147.093-.171.051-.163.076L78.766,149.891a2.771,2.771,0,0,1-.723.109Zm3.465-5.686,33.932-11.3-22.6-22.6ZM95,106.342l24.542,24.542,59.094-59.093L154.094,47.249Zm74.32-69.762a10.93,10.93,0,0,0-7.778,3.22l-4.314,4.31,24.548,24.549,4.279-4.319a11.067,11.067,0,0,0,.034-15.551L177.1,39.8A10.935,10.935,0,0,0,169.322,36.58Z" fill="#60d6bc"/>
                <rect x="95.824" y="72.502" width="81.991" height="33.129" transform="translate(-22.906 122.834) rotate(-45)" fill="#fff"/>
                <path d="M158.347,44.11l3.755-3.751a10.217,10.217,0,0,1,14.442,0l8.987,8.987a10.275,10.275,0,0,1-.034,14.437l-3.722,3.756Z" fill="#fff"/>
                </g>
                <g id="Capa_1" data-name="Capa 1">
                <polygon points="82.129 143.689 114.704 132.844 93.01 111.15 82.129 143.689" fill="#fff"/>
                </g>
            </g>
        </symbol>
        <symbol id="phone" viewBox="0 0 172.144 172.145">
            <g xmlns="http://www.w3.org/2000/svg" id="Layer_2" data-name="Layer 2">
                <g id="Capa_1" data-name="Capa 1">
                    <path d="M168.8,136.883l-19.084-12.724-16.965-11.308a7.516,7.516,0,0,0-10.091,1.638l-10.5,13.5a7.476,7.476,0,0,1-9.545,1.979c-7.123-3.962-15.546-7.693-34.132-26.3S46.142,76.654,42.18,69.53a7.475,7.475,0,0,1,1.98-9.544l13.5-10.5A7.516,7.516,0,0,0,59.294,39.4L48.333,22.954,35.262,3.347A7.515,7.515,0,0,0,25.144,1.071L10.07,10.114A18.421,18.421,0,0,0,1.706,20.939c-4.123,15.029-4.954,48.185,48.182,101.32s86.288,52.3,101.317,48.179a18.42,18.42,0,0,0,10.825-8.363L171.073,147A7.514,7.514,0,0,0,168.8,136.883Z"/>
                </g>
            </g>
        </symbol>
        <symbol id="plugPlay" viewBox="0 0 150.371 150.371">
            <g id="Layer_2" data-name="Layer 2">
                <g id="Capa_1" data-name="Capa 1">
                <path d="M147.412,0H92.381a2.959,2.959,0,0,0-2.958,2.959v15.68H83.505a11.835,11.835,0,0,0,0,23.67h5.918V57.99a2.958,2.958,0,0,0,2.958,2.958h18.64a2.958,2.958,0,0,0,2.958-2.958V48.226a5.918,5.918,0,0,1,11.835,0V57.99a2.958,2.958,0,0,0,2.959,2.958h18.639a2.958,2.958,0,0,0,2.959-2.958V2.959A2.959,2.959,0,0,0,147.412,0Z" fill="#ff5949"/>
                <path d="M1.847,150a1.478,1.478,0,0,1-1.476-1.476V38.463a1.478,1.478,0,0,1,1.476-1.476H19.01v-7.4a10.352,10.352,0,0,1,20.7,0v7.4H56.877a1.478,1.478,0,0,1,1.476,1.476V57.1a1.478,1.478,0,0,1-1.476,1.476H47.114a7.4,7.4,0,0,0,0,14.8h9.763a1.478,1.478,0,0,1,1.476,1.476V92.018H74.041v-7.4a10.352,10.352,0,0,1,20.7,0v7.4h17.164a1.463,1.463,0,0,1,1.043.432,1.486,1.486,0,0,1,.433,1.043v55.031A1.477,1.477,0,0,1,111.909,150Zm56.506-2.952h52.08V94.969H93.269a1.478,1.478,0,0,1-1.476-1.476V84.618a7.4,7.4,0,1,0-14.8,0v8.875a1.478,1.478,0,0,1-1.476,1.476H58.353v15.688h8.288a10.352,10.352,0,0,1,0,20.7H58.353Zm-55.031,0H55.4V129.885a1.477,1.477,0,0,1,1.475-1.476h9.764a7.4,7.4,0,0,0,0-14.8H56.877a1.476,1.476,0,0,1-1.475-1.475V94.969H3.322Zm0-55.03H55.4V76.329H47.114a10.352,10.352,0,1,1,0-20.7H55.4V39.938H38.238a1.477,1.477,0,0,1-1.476-1.475V29.586a7.4,7.4,0,0,0-14.8,0v8.877a1.477,1.477,0,0,1-1.476,1.475H3.322Z" fill="#ff5949" stroke="#ff5949" stroke-miterlimit="10" stroke-width="0.741"/>
                </g>
            </g>
        </symbol>
        <symbol id="downdoubleArrow" viewBox="0 0 490.688 490.688">
            <g>
                <path style="fill:#607D8B;" d="M472.328,216.529L245.213,443.665L18.098,216.529c-4.237-4.093-10.99-3.975-15.083,0.262   c-3.992,4.134-3.992,10.687,0,14.82l234.667,234.667c4.165,4.164,10.917,4.164,15.083,0l234.667-234.667   c4.093-4.237,3.975-10.99-0.262-15.083c-4.134-3.993-10.687-3.993-14.821,0L472.328,216.529z"/>
                <path style="fill:#607D8B;" d="M472.328,24.529L245.213,251.665L18.098,24.529c-4.237-4.093-10.99-3.975-15.083,0.262   c-3.992,4.134-3.992,10.687,0,14.821l234.667,234.667c4.165,4.164,10.917,4.164,15.083,0L487.432,39.612   c4.237-4.093,4.354-10.845,0.262-15.083c-4.093-4.237-10.845-4.354-15.083-0.262c-0.089,0.086-0.176,0.173-0.262,0.262   L472.328,24.529z"/>
            </g>
            <path d="M245.213,469.415c-2.831,0.005-5.548-1.115-7.552-3.115L2.994,231.633c-4.093-4.237-3.975-10.99,0.262-15.083  c4.134-3.992,10.687-3.992,14.82,0l227.136,227.115l227.115-227.136c4.237-4.093,10.99-3.975,15.083,0.262  c3.993,4.134,3.993,10.687,0,14.821L252.744,466.279C250.748,468.28,248.04,469.408,245.213,469.415z"/>
            <path d="M245.213,277.415c-2.831,0.005-5.548-1.115-7.552-3.115L2.994,39.633c-4.093-4.237-3.975-10.99,0.262-15.083  c4.134-3.992,10.687-3.992,14.821,0l227.136,227.115L472.328,24.529c4.093-4.237,10.845-4.354,15.083-0.262  s4.354,10.845,0.262,15.083c-0.086,0.089-0.173,0.176-0.262,0.262L252.744,274.279C250.748,276.28,248.04,277.408,245.213,277.415z"/>
        </symbol>
        <symbol id="arrows" viewBox="0 0 240.823 240.823">
            <g xmlns="http://www.w3.org/2000/svg">
                <path id="Chevron_Right" d="M57.633,129.007L165.93,237.268c4.752,4.74,12.451,4.74,17.215,0c4.752-4.74,4.752-12.439,0-17.179   l-99.707-99.671l99.695-99.671c4.752-4.74,4.752-12.439,0-17.191c-4.752-4.74-12.463-4.74-17.215,0L57.621,111.816   C52.942,116.507,52.942,124.327,57.633,129.007z"/>
            </g>
        </symbol>
        <symbol id="chevronRight" viewBox="0 0 512 512">
            <path xmlns="http://www.w3.org/2000/svg" d="m256 512c-68.378906 0-132.667969-26.628906-181.019531-74.980469-48.351563-48.351562-74.980469-112.640625-74.980469-181.019531s26.628906-132.667969 74.980469-181.019531c48.351562-48.351563 112.640625-74.980469 181.019531-74.980469s132.667969 26.628906 181.019531 74.980469c48.351563 48.351562 74.980469 112.640625 74.980469 181.019531s-26.628906 132.667969-74.980469 181.019531c-48.351562 48.351563-112.640625 74.980469-181.019531 74.980469zm0-472c-119.101562 0-216 96.898438-216 216s96.898438 216 216 216 216-96.898438 216-216-96.898438-216-216-216zm104.285156 216-138.285156-138.285156-28.285156 28.285156 110 110-110 110 28.285156 28.285156zm0 0"/>
        </symbol>
    </defs>
</svg>